<svg xmlns="http://www.w3.org/2000/svg" xmlns:xlink="http://www.w3.org/1999/xlink" viewBox="0 0 16 15" version="1.1" x="0px" y="0px"><title>image</title><desc>Created with Sketch.</desc><g stroke="none" stroke-width="1" fill="none" fill-rule="evenodd"><g transform="translate(-160.000000, -430.000000)" fill="#000000"><path d="M174.5,441 L161.5,441 C161.224,441 161,440.775 161,440.5 L161,440.207 L164.5,436.707 L167.646,439.854 C167.737,439.944 167.862,440 168,440 C168.048,440 168.091,439.985 168.135,439.973 L168.137,439.98 L171.479,439.026 L175,440.346 L175,440.5 C175,440.775 174.775,441 174.5,441 M161.5,431 L174.5,431 C174.775,431 175,431.224 175,431.5 L175,439.279 L171.676,438.032 L171.675,438.035 C171.62,438.015 171.562,438 171.5,438 C171.452,438 171.409,438.015 171.365,438.027 L171.362,438.02 L168.146,438.939 L164.854,435.647 C164.763,435.556 164.638,435.5 164.5,435.5 C164.362,435.5 164.237,435.556 164.146,435.647 L161,438.793 L161,431.5 C161,431.224 161.224,431 161.5,431 M174.5,430 C175.327,430 176,430.673 176,431.5 L176,440.5 C176,441.327 175.327,442 174.5,442 L161.5,442 C160.673,442 160,441.327 160,440.5 L160,431.5 C160,430.673 160.673,430 161.5,430 L174.5,430 Z M171.5,433 C172.327,433 173,433.673 173,434.5 C173,435.327 172.327,436 171.5,436 C170.673,436 170,435.327 170,434.5 C170,433.673 170.673,433 171.5,433 Z M171.5,437 C172.879,437 174,435.878 174,434.5 C174,433.122 172.879,432 171.5,432 C170.121,432 169,433.122 169,434.5 C169,435.878 170.121,437 171.5,437 Z"/></g></g><text x="0" y="27" fill="#000000" font-size="5px" font-weight="bold" font-family="'Helvetica Neue', Helvetica, Arial-Unicode, Arial, Sans-serif">Created by mark smith</text><text x="0" y="32" fill="#000000" font-size="5px" font-weight="bold" font-family="'Helvetica Neue', Helvetica, Arial-Unicode, Arial, Sans-serif">from the Noun Project</text></svg>