<svg xmlns="http://www.w3.org/2000/svg" xmlns:xlink="http://www.w3.org/1999/xlink" version="1.1" x="0px" y="0px" viewBox="0 0 1024 1280" style="enable-background:new 0 0 1024 1024;" xml:space="preserve"><path d="M931.8,736.7V291.2c0-3.2,0-6.3,0-9.5c-0.1-13.4-5.9-25.5-16.9-33.2c-10.2-7.2-21.4-6.9-33-6.9H357  c-7.7,0-15.4,0-23.1,0c-12.7,0.1-24.7,4.3-34.2,12.9c-2.8,2.5-5.1,5.4-7.5,8.2c-27.3,31.7-54.6,63.3-81.8,95  c-31.1,36.1-62.2,72.2-93.3,108.3c-9.1,10.6-20.8,21.6-23.7,35.7C90,517.5,94.6,532,105,544.1c2.8,3.3,5.6,6.5,8.4,9.8  c30,34.8,60.1,69.7,90.1,104.5c28.7,33.3,57.4,66.6,86.1,99.9c2.2,2.6,4.4,5.2,6.7,7.7c9.4,10.6,22.8,16.2,36.9,16.4  c6.5,0.1,13,0,19.5,0h539.5c0.3,0,0.5,0,0.8,0c0.3,0,0.6,0,0.9,0h0.1c21.1-1.1,37.4-17.7,37.9-39  C931.8,741.1,931.8,738.9,931.8,736.7z M643.3,526.6c25.2,25.2,50.4,50.4,75.5,75.5c11.9,11.9,11,30.5,0,42.4  c-11,11.9-31.3,11.1-42.4,0c-9.2-9.2-18.4-18.4-27.6-27.6c-20.9-20.9-41.7-41.7-62.6-62.6c-4.9,4.8-9.7,9.7-14.6,14.6  c-25.2,25.2-50.4,50.4-75.6,75.5c-11.9,11.9-30.4,11-42.4,0c-11.9-11-11.1-31.3,0-42.4l27.6-27.6c20.8-20.9,41.7-41.7,62.6-62.6  c-4.9-4.9-9.7-9.7-14.6-14.6l-75.5-75.5c-11.9-11.9-11-30.5,0-42.4c11-11.9,31.3-11.1,42.4,0c9.2,9.2,18.4,18.4,27.6,27.6  c20.9,20.9,41.7,41.7,62.6,62.6c4.9-4.9,9.7-9.7,14.6-14.6c25.2-25.2,50.4-50.4,75.5-75.5c11.9-11.9,30.5-11,42.4,0  c11.9,11,11.1,31.3,0,42.4c-9.2,9.2-18.4,18.4-27.6,27.6c-20.9,20.8-41.7,41.7-62.6,62.6L643.3,526.6z"/><text x="0" y="1039" fill="#000000" font-size="5px" font-weight="bold" font-family="'Helvetica Neue', Helvetica, Arial-Unicode, Arial, Sans-serif">Created by shashank singh</text><text x="0" y="1044" fill="#000000" font-size="5px" font-weight="bold" font-family="'Helvetica Neue', Helvetica, Arial-Unicode, Arial, Sans-serif">from the Noun Project</text></svg>