<svg xmlns="http://www.w3.org/2000/svg" data-name="Layer 1" viewBox="0 0 100 125" x="0px" y="0px"><title>130all</title><path d="M18.49,61.1a4,4,0,0,0,5.49.16L42.52,44.72a4,4,0,0,0-5.33-6l-15.72,14-8.35-8.35a4,4,0,0,0-5.66,5.66Z"/><path d="M89.7,45.91H53a4,4,0,0,0,0,8H89.7a4,4,0,0,0,0-8Z"/><path d="M18.49,91.1a4,4,0,0,0,5.49.16L42.52,74.72a4,4,0,1,0-5.33-6l-15.72,14-8.35-8.35a4,4,0,1,0-5.66,5.66Z"/><path d="M89.7,75.91H53a4,4,0,0,0,0,8H89.7a4,4,0,0,0,0-8Z"/><path d="M18.49,31.1a4,4,0,0,0,5.49.16L42.52,14.72a4,4,0,0,0-5.33-6l-15.72,14-8.35-8.35a4,4,0,0,0-5.66,5.66Z"/><path d="M89.7,15.91H53a4,4,0,0,0,0,8H89.7a4,4,0,0,0,0-8Z"/><text x="0" y="115" fill="#000000" font-size="5px" font-weight="bold" font-family="'Helvetica Neue', Helvetica, Arial-Unicode, Arial, Sans-serif">Created by Kamal</text><text x="0" y="120" fill="#000000" font-size="5px" font-weight="bold" font-family="'Helvetica Neue', Helvetica, Arial-Unicode, Arial, Sans-serif">from the Noun Project</text></svg>