<svg width="496" height="302" viewBox="0 0 496 302" fill="none" xmlns="http://www.w3.org/2000/svg">
    <mask id="path-1-outside-1" maskUnits="userSpaceOnUse" x="0.890625" y="0.75" width="495" height="302" fill="black">
        <rect fill="white" x="0.890625" y="0.75" width="495" height="302"/>
        <path d="M369.797 11.1562H347.859V72H338.906V11.1562H317.016V3.75H369.797V11.1562Z"/>
        <path d="M432.375 72H423.328V40.4531H388.922V72H379.922V3.75H388.922V33.0938H423.328V3.75H432.375V72Z"/>
        <path d="M486.938 40.4531H457.359V64.6406H491.719V72H448.359V3.75H491.25V11.1562H457.359V33.0938H486.938V40.4531Z"/>
        <path d="M113.531 116.75V163.156C113.5 169.594 111.469 174.859 107.438 178.953C103.438 183.047 98 185.344 91.125 185.844L88.7344 185.938C81.2656 185.938 75.3125 183.922 70.875 179.891C66.4375 175.859 64.1875 170.312 64.125 163.25V116.75H73.0312V162.969C73.0312 167.906 74.3906 171.75 77.1094 174.5C79.8281 177.219 83.7031 178.578 88.7344 178.578C93.8281 178.578 97.7188 177.219 100.406 174.5C103.125 171.781 104.484 167.953 104.484 163.016V116.75H113.531Z"/>
        <path d="M136.781 177.641H169.125V185H127.734V116.75H136.781V177.641Z"/>
        <path d="M213.609 124.156H191.672V185H182.719V124.156H160.828V116.75H213.609V124.156Z"/>
        <path d="M233.391 185H224.391V116.75H233.391V185Z"/>
        <path d="M261.516 116.75L283.828 172.438L306.141 116.75H317.812V185H308.812V158.422L309.656 129.734L287.25 185H280.359L258 129.875L258.891 158.422V185H249.891V116.75H261.516Z"/>
        <path d="M372.234 167.188H343.641L337.219 185H327.938L354 116.75H361.875L387.984 185H378.75L372.234 167.188ZM346.359 159.781H369.562L357.938 127.859L346.359 159.781Z"/>
        <path d="M438.234 124.156H416.297V185H407.344V124.156H385.453V116.75H438.234V124.156Z"/>
        <path d="M486.938 153.453H457.359V177.641H491.719V185H448.359V116.75H491.25V124.156H457.359V146.094H486.938V153.453Z"/>
        <path d="M56.6719 237.156H34.7344V298H25.7812V237.156H3.89062V229.75H56.6719V237.156Z"/>
        <path d="M117.984 266.078C117.984 272.766 116.859 278.609 114.609 283.609C112.359 288.578 109.172 292.375 105.047 295C100.922 297.625 96.1094 298.938 90.6094 298.938C85.2344 298.938 80.4688 297.625 76.3125 295C72.1562 292.344 68.9219 288.578 66.6094 283.703C64.3281 278.797 63.1562 273.125 63.0938 266.688V261.766C63.0938 255.203 64.2344 249.406 66.5156 244.375C68.7969 239.344 72.0156 235.5 76.1719 232.844C80.3594 230.156 85.1406 228.812 90.5156 228.812C95.9844 228.812 100.797 230.141 104.953 232.797C109.141 235.422 112.359 239.25 114.609 244.281C116.859 249.281 117.984 255.109 117.984 261.766V266.078ZM109.031 261.672C109.031 253.578 107.406 247.375 104.156 243.062C100.906 238.719 96.3594 236.547 90.5156 236.547C84.8281 236.547 80.3438 238.719 77.0625 243.062C73.8125 247.375 72.1406 253.375 72.0469 261.062V266.078C72.0469 273.922 73.6875 280.094 76.9688 284.594C80.2812 289.062 84.8281 291.297 90.6094 291.297C96.4219 291.297 100.922 289.188 104.109 284.969C107.297 280.719 108.938 274.641 109.031 266.734V261.672Z"/>
        <path d="M148.172 272.547H125.297V265.469H148.172V272.547Z"/>
        <path d="M158.016 298V229.75H177.281C183.219 229.75 188.469 231.062 193.031 233.688C197.594 236.312 201.109 240.047 203.578 244.891C206.078 249.734 207.344 255.297 207.375 261.578V265.938C207.375 272.375 206.125 278.016 203.625 282.859C201.156 287.703 197.609 291.422 192.984 294.016C188.391 296.609 183.031 297.938 176.906 298H158.016ZM167.016 237.156V290.641H176.484C183.422 290.641 188.812 288.484 192.656 284.172C196.531 279.859 198.469 273.719 198.469 265.75V261.766C198.469 254.016 196.641 248 192.984 243.719C189.359 239.406 184.203 237.219 177.516 237.156H167.016Z"/>
        <path d="M273.516 266.078C273.516 272.766 272.391 278.609 270.141 283.609C267.891 288.578 264.703 292.375 260.578 295C256.453 297.625 251.641 298.938 246.141 298.938C240.766 298.938 236 297.625 231.844 295C227.688 292.344 224.453 288.578 222.141 283.703C219.859 278.797 218.688 273.125 218.625 266.688V261.766C218.625 255.203 219.766 249.406 222.047 244.375C224.328 239.344 227.547 235.5 231.703 232.844C235.891 230.156 240.672 228.812 246.047 228.812C251.516 228.812 256.328 230.141 260.484 232.797C264.672 235.422 267.891 239.25 270.141 244.281C272.391 249.281 273.516 255.109 273.516 261.766V266.078ZM264.562 261.672C264.562 253.578 262.938 247.375 259.688 243.062C256.438 238.719 251.891 236.547 246.047 236.547C240.359 236.547 235.875 238.719 232.594 243.062C229.344 247.375 227.672 253.375 227.578 261.062V266.078C227.578 273.922 229.219 280.094 232.5 284.594C235.812 289.062 240.359 291.297 246.141 291.297C251.953 291.297 256.453 289.188 259.641 284.969C262.828 280.719 264.469 274.641 264.562 266.734V261.672Z"/>
        <path d="M319.875 290.641H352.219V298H310.828V229.75H319.875V290.641Z"/>
        <path d="M372.141 298H363.141V229.75H372.141V298Z"/>
        <path d="M408.75 267.578C401.031 265.359 395.406 262.641 391.875 259.422C388.375 256.172 386.625 252.172 386.625 247.422C386.625 242.047 388.766 237.609 393.047 234.109C397.359 230.578 402.953 228.812 409.828 228.812C414.516 228.812 418.688 229.719 422.344 231.531C426.031 233.344 428.875 235.844 430.875 239.031C432.906 242.219 433.922 245.703 433.922 249.484H424.875C424.875 245.359 423.562 242.125 420.938 239.781C418.312 237.406 414.609 236.219 409.828 236.219C405.391 236.219 401.922 237.203 399.422 239.172C396.953 241.109 395.719 243.812 395.719 247.281C395.719 250.062 396.891 252.422 399.234 254.359C401.609 256.266 405.625 258.016 411.281 259.609C416.969 261.203 421.406 262.969 424.594 264.906C427.812 266.812 430.188 269.047 431.719 271.609C433.281 274.172 434.062 277.188 434.062 280.656C434.062 286.188 431.906 290.625 427.594 293.969C423.281 297.281 417.516 298.938 410.297 298.938C405.609 298.938 401.234 298.047 397.172 296.266C393.109 294.453 389.969 291.984 387.75 288.859C385.562 285.734 384.469 282.188 384.469 278.219H393.516C393.516 282.344 395.031 285.609 398.062 288.016C401.125 290.391 405.203 291.578 410.297 291.578C415.047 291.578 418.688 290.609 421.219 288.672C423.75 286.734 425.016 284.094 425.016 280.75C425.016 277.406 423.844 274.828 421.5 273.016C419.156 271.172 414.906 269.359 408.75 267.578Z"/>
        <path d="M492.797 237.156H470.859V298H461.906V237.156H440.016V229.75H492.797V237.156Z"/>
    </mask>
    <path d="M369.797 11.1562H347.859V72H338.906V11.1562H317.016V3.75H369.797V11.1562Z" stroke="white" stroke-width="6" mask="url(#path-1-outside-1)"/>
    <path d="M432.375 72H423.328V40.4531H388.922V72H379.922V3.75H388.922V33.0938H423.328V3.75H432.375V72Z" stroke="white" stroke-width="6" mask="url(#path-1-outside-1)"/>
    <path d="M486.938 40.4531H457.359V64.6406H491.719V72H448.359V3.75H491.25V11.1562H457.359V33.0938H486.938V40.4531Z" stroke="white" stroke-width="6" mask="url(#path-1-outside-1)"/>
    <path d="M113.531 116.75V163.156C113.5 169.594 111.469 174.859 107.438 178.953C103.438 183.047 98 185.344 91.125 185.844L88.7344 185.938C81.2656 185.938 75.3125 183.922 70.875 179.891C66.4375 175.859 64.1875 170.312 64.125 163.25V116.75H73.0312V162.969C73.0312 167.906 74.3906 171.75 77.1094 174.5C79.8281 177.219 83.7031 178.578 88.7344 178.578C93.8281 178.578 97.7188 177.219 100.406 174.5C103.125 171.781 104.484 167.953 104.484 163.016V116.75H113.531Z" stroke="white" stroke-width="6" mask="url(#path-1-outside-1)"/>
    <path d="M136.781 177.641H169.125V185H127.734V116.75H136.781V177.641Z" stroke="white" stroke-width="6" mask="url(#path-1-outside-1)"/>
    <path d="M213.609 124.156H191.672V185H182.719V124.156H160.828V116.75H213.609V124.156Z" stroke="white" stroke-width="6" mask="url(#path-1-outside-1)"/>
    <path d="M233.391 185H224.391V116.75H233.391V185Z" stroke="white" stroke-width="6" mask="url(#path-1-outside-1)"/>
    <path d="M261.516 116.75L283.828 172.438L306.141 116.75H317.812V185H308.812V158.422L309.656 129.734L287.25 185H280.359L258 129.875L258.891 158.422V185H249.891V116.75H261.516Z" stroke="white" stroke-width="6" mask="url(#path-1-outside-1)"/>
    <path d="M372.234 167.188H343.641L337.219 185H327.938L354 116.75H361.875L387.984 185H378.75L372.234 167.188ZM346.359 159.781H369.562L357.938 127.859L346.359 159.781Z" stroke="white" stroke-width="6" mask="url(#path-1-outside-1)"/>
    <path d="M438.234 124.156H416.297V185H407.344V124.156H385.453V116.75H438.234V124.156Z" stroke="white" stroke-width="6" mask="url(#path-1-outside-1)"/>
    <path d="M486.938 153.453H457.359V177.641H491.719V185H448.359V116.75H491.25V124.156H457.359V146.094H486.938V153.453Z" stroke="white" stroke-width="6" mask="url(#path-1-outside-1)"/>
    <path d="M56.6719 237.156H34.7344V298H25.7812V237.156H3.89062V229.75H56.6719V237.156Z" stroke="white" stroke-width="6" mask="url(#path-1-outside-1)"/>
    <path d="M117.984 266.078C117.984 272.766 116.859 278.609 114.609 283.609C112.359 288.578 109.172 292.375 105.047 295C100.922 297.625 96.1094 298.938 90.6094 298.938C85.2344 298.938 80.4688 297.625 76.3125 295C72.1562 292.344 68.9219 288.578 66.6094 283.703C64.3281 278.797 63.1562 273.125 63.0938 266.688V261.766C63.0938 255.203 64.2344 249.406 66.5156 244.375C68.7969 239.344 72.0156 235.5 76.1719 232.844C80.3594 230.156 85.1406 228.812 90.5156 228.812C95.9844 228.812 100.797 230.141 104.953 232.797C109.141 235.422 112.359 239.25 114.609 244.281C116.859 249.281 117.984 255.109 117.984 261.766V266.078ZM109.031 261.672C109.031 253.578 107.406 247.375 104.156 243.062C100.906 238.719 96.3594 236.547 90.5156 236.547C84.8281 236.547 80.3438 238.719 77.0625 243.062C73.8125 247.375 72.1406 253.375 72.0469 261.062V266.078C72.0469 273.922 73.6875 280.094 76.9688 284.594C80.2812 289.062 84.8281 291.297 90.6094 291.297C96.4219 291.297 100.922 289.188 104.109 284.969C107.297 280.719 108.938 274.641 109.031 266.734V261.672Z" stroke="white" stroke-width="6" mask="url(#path-1-outside-1)"/>
    <path d="M148.172 272.547H125.297V265.469H148.172V272.547Z" stroke="white" stroke-width="6" mask="url(#path-1-outside-1)"/>
    <path d="M158.016 298V229.75H177.281C183.219 229.75 188.469 231.062 193.031 233.688C197.594 236.312 201.109 240.047 203.578 244.891C206.078 249.734 207.344 255.297 207.375 261.578V265.938C207.375 272.375 206.125 278.016 203.625 282.859C201.156 287.703 197.609 291.422 192.984 294.016C188.391 296.609 183.031 297.938 176.906 298H158.016ZM167.016 237.156V290.641H176.484C183.422 290.641 188.812 288.484 192.656 284.172C196.531 279.859 198.469 273.719 198.469 265.75V261.766C198.469 254.016 196.641 248 192.984 243.719C189.359 239.406 184.203 237.219 177.516 237.156H167.016Z" stroke="white" stroke-width="6" mask="url(#path-1-outside-1)"/>
    <path d="M273.516 266.078C273.516 272.766 272.391 278.609 270.141 283.609C267.891 288.578 264.703 292.375 260.578 295C256.453 297.625 251.641 298.938 246.141 298.938C240.766 298.938 236 297.625 231.844 295C227.688 292.344 224.453 288.578 222.141 283.703C219.859 278.797 218.688 273.125 218.625 266.688V261.766C218.625 255.203 219.766 249.406 222.047 244.375C224.328 239.344 227.547 235.5 231.703 232.844C235.891 230.156 240.672 228.812 246.047 228.812C251.516 228.812 256.328 230.141 260.484 232.797C264.672 235.422 267.891 239.25 270.141 244.281C272.391 249.281 273.516 255.109 273.516 261.766V266.078ZM264.562 261.672C264.562 253.578 262.938 247.375 259.688 243.062C256.438 238.719 251.891 236.547 246.047 236.547C240.359 236.547 235.875 238.719 232.594 243.062C229.344 247.375 227.672 253.375 227.578 261.062V266.078C227.578 273.922 229.219 280.094 232.5 284.594C235.812 289.062 240.359 291.297 246.141 291.297C251.953 291.297 256.453 289.188 259.641 284.969C262.828 280.719 264.469 274.641 264.562 266.734V261.672Z" stroke="white" stroke-width="6" mask="url(#path-1-outside-1)"/>
    <path d="M319.875 290.641H352.219V298H310.828V229.75H319.875V290.641Z" stroke="white" stroke-width="6" mask="url(#path-1-outside-1)"/>
    <path d="M372.141 298H363.141V229.75H372.141V298Z" stroke="white" stroke-width="6" mask="url(#path-1-outside-1)"/>
    <path d="M408.75 267.578C401.031 265.359 395.406 262.641 391.875 259.422C388.375 256.172 386.625 252.172 386.625 247.422C386.625 242.047 388.766 237.609 393.047 234.109C397.359 230.578 402.953 228.812 409.828 228.812C414.516 228.812 418.688 229.719 422.344 231.531C426.031 233.344 428.875 235.844 430.875 239.031C432.906 242.219 433.922 245.703 433.922 249.484H424.875C424.875 245.359 423.562 242.125 420.938 239.781C418.312 237.406 414.609 236.219 409.828 236.219C405.391 236.219 401.922 237.203 399.422 239.172C396.953 241.109 395.719 243.812 395.719 247.281C395.719 250.062 396.891 252.422 399.234 254.359C401.609 256.266 405.625 258.016 411.281 259.609C416.969 261.203 421.406 262.969 424.594 264.906C427.812 266.812 430.188 269.047 431.719 271.609C433.281 274.172 434.062 277.188 434.062 280.656C434.062 286.188 431.906 290.625 427.594 293.969C423.281 297.281 417.516 298.938 410.297 298.938C405.609 298.938 401.234 298.047 397.172 296.266C393.109 294.453 389.969 291.984 387.75 288.859C385.562 285.734 384.469 282.188 384.469 278.219H393.516C393.516 282.344 395.031 285.609 398.062 288.016C401.125 290.391 405.203 291.578 410.297 291.578C415.047 291.578 418.688 290.609 421.219 288.672C423.75 286.734 425.016 284.094 425.016 280.75C425.016 277.406 423.844 274.828 421.5 273.016C419.156 271.172 414.906 269.359 408.75 267.578Z" stroke="white" stroke-width="6" mask="url(#path-1-outside-1)"/>
    <path d="M492.797 237.156H470.859V298H461.906V237.156H440.016V229.75H492.797V237.156Z" stroke="white" stroke-width="6" mask="url(#path-1-outside-1)"/>
</svg>
