<svg id="app_logo" width="274" height="275" viewBox="0 0 274 275" fill="none"
    xmlns="http://www.w3.org/2000/svg">
    <mask id="path-1-inside-1" fill="white">
        <path d="M74.6375 67.7849H274V112.146H53.3939V89.9656L74.6375 67.7849Z"/>
        <path d="M53.3939 223.439H274V274.805H53.3939V223.439Z"/>
        <path d="M6.05058 56.7527C7.6622 56.7645 9.18595 57.503 10.1601 58.7445L27.3593 80.6633C29.2633 83.0897 32.9615 83.3479 35.1352 81.2061L117.116 0.428986L114.53 6.84994C113.819 8.61515 115.916 10.2489 117.574 9.22131L130.63 1.12995L35.4077 99.5418C33.2136 101.809 29.3529 101.528 27.4601 98.963L1.94451 64.3815C-0.449616 61.1367 1.92623 56.7226 6.05058 56.7527Z"/>
        <path d="M74.6375 145.612H274V189.973H53.3939V167.793L74.6375 145.612Z"/>
        <path d="M8.0086 158.723C9.11217 158.725 10.1577 159.228 10.8251 160.078L21.2013 173.292C23.1029 175.713 26.7932 175.974 28.9682 173.841L83.5639 120.286L82.5542 122.752C81.8308 124.519 83.9329 126.165 85.5957 125.133L92.7248 120.711L29.1198 186.119C26.9232 188.378 23.0704 188.093 21.1806 185.531L5.2324 163.917C3.6075 161.715 5.20959 158.717 8.0086 158.723Z"/>
    </mask>
    <path d="M74.6375 67.7849H274V112.146H53.3939V89.9656L74.6375 67.7849Z" stroke="white" mask="url(#path-1-inside-1)"/>
    <path d="M53.3939 223.439H274V274.805H53.3939V223.439Z" stroke="white" mask="url(#path-1-inside-1)"/>
    <path d="M6.05058 56.7527C7.6622 56.7645 9.18595 57.503 10.1601 58.7445L27.3593 80.6633C29.2633 83.0897 32.9615 83.3479 35.1352 81.2061L117.116 0.428986L114.53 6.84994C113.819 8.61515 115.916 10.2489 117.574 9.22131L130.63 1.12995L35.4077 99.5418C33.2136 101.809 29.3529 101.528 27.4601 98.963L1.94451 64.3815C-0.449616 61.1367 1.92623 56.7226 6.05058 56.7527Z" stroke="white" mask="url(#path-1-inside-1)"/>
    <path d="M74.6375 145.612H274V189.973H53.3939V167.793L74.6375 145.612Z" stroke="white" mask="url(#path-1-inside-1)"/>
    <path d="M8.0086 158.723C9.11217 158.725 10.1577 159.228 10.8251 160.078L21.2013 173.292C23.1029 175.713 26.7932 175.974 28.9682 173.841L83.5639 120.286L82.5542 122.752C81.8308 124.519 83.9329 126.165 85.5957 125.133L92.7248 120.711L29.1198 186.119C26.9232 188.378 23.0704 188.093 21.1806 185.531L5.2324 163.917C3.6075 161.715 5.20959 158.717 8.0086 158.723Z" stroke="white" mask="url(#path-1-inside-1)"/>
</svg>
