<svg width="934" height="367" viewBox="0 0 934 367" fill="none"
    xmlns="http://www.w3.org/2000/svg">
    <g id="app_logo">
        <path d="M733.649 114.356H933.011V158.717H712.405V136.537L733.649 114.356Z" fill="white"/>
        <path d="M712.405 270.01H933.011V321.376H712.405V270.01Z" fill="white"/>
        <path d="M665.062 103.324C666.673 103.336 668.197 104.074 669.171 105.315L686.371 127.234C688.275 129.661 691.973 129.919 694.146 127.777L776.127 47L773.541 53.421C772.83 55.1862 774.928 56.82 776.586 55.7923L789.641 47.701L694.419 146.113C692.225 148.38 688.364 148.099 686.471 145.534L660.956 110.952C658.562 107.708 660.938 103.294 665.062 103.324Z" fill="white"/>
        <path d="M733.649 192.183H933.011V236.544H712.405V214.364L733.649 192.183Z" fill="white"/>
        <path d="M667.02 205.294C668.123 205.296 669.169 205.799 669.836 206.649L680.213 219.863C682.114 222.284 685.805 222.545 687.98 220.412L742.575 166.857L741.565 169.323C740.842 171.09 742.944 172.736 744.607 171.704L751.736 167.282L688.131 232.69C685.935 234.949 682.082 234.664 680.192 232.103L664.244 210.488C662.619 208.286 664.221 205.288 667.02 205.294Z" fill="white"/>
    </g>
    <path id="divisory_line" d="M574 0V367" stroke="white" stroke-width="3"/>
    <g id="app_name">
        <path d="M365.906 43.4062H343.969V104.25H335.016V43.4062H313.125V36H365.906V43.4062Z" fill="white"/>
        <path d="M428.484 104.25H419.438V72.7031H385.031V104.25H376.031V36H385.031V65.3438H419.438V36H428.484V104.25Z" fill="white"/>
        <path d="M483.047 72.7031H453.469V96.8906H487.828V104.25H444.469V36H487.359V43.4062H453.469V65.3438H483.047V72.7031Z" fill="white"/>
        <path d="M109.641 149V195.406C109.609 201.844 107.578 207.109 103.547 211.203C99.5469 215.297 94.1094 217.594 87.2344 218.094L84.8438 218.188C77.375 218.188 71.4219 216.172 66.9844 212.141C62.5469 208.109 60.2969 202.562 60.2344 195.5V149H69.1406V195.219C69.1406 200.156 70.5 204 73.2188 206.75C75.9375 209.469 79.8125 210.828 84.8438 210.828C89.9375 210.828 93.8281 209.469 96.5156 206.75C99.2344 204.031 100.594 200.203 100.594 195.266V149H109.641Z" fill="white"/>
        <path d="M132.891 209.891H165.234V217.25H123.844V149H132.891V209.891Z" fill="white"/>
        <path d="M209.719 156.406H187.781V217.25H178.828V156.406H156.938V149H209.719V156.406Z" fill="white"/>
        <path d="M229.5 217.25H220.5V149H229.5V217.25Z" fill="white"/>
        <path d="M257.625 149L279.938 204.688L302.25 149H313.922V217.25H304.922V190.672L305.766 161.984L283.359 217.25H276.469L254.109 162.125L255 190.672V217.25H246V149H257.625Z" fill="white"/>
        <path d="M368.344 199.438H339.75L333.328 217.25H324.047L350.109 149H357.984L384.094 217.25H374.859L368.344 199.438ZM342.469 192.031H365.672L354.047 160.109L342.469 192.031Z" fill="white"/>
        <path d="M434.344 156.406H412.406V217.25H403.453V156.406H381.562V149H434.344V156.406Z" fill="white"/>
        <path d="M483.047 185.703H453.469V209.891H487.828V217.25H444.469V149H487.359V156.406H453.469V178.344H483.047V185.703Z" fill="white"/>
        <path d="M52.7812 269.406H30.8438V330.25H21.8906V269.406H0V262H52.7812V269.406Z" fill="white"/>
        <path d="M114.094 298.328C114.094 305.016 112.969 310.859 110.719 315.859C108.469 320.828 105.281 324.625 101.156 327.25C97.0312 329.875 92.2188 331.188 86.7188 331.188C81.3438 331.188 76.5781 329.875 72.4219 327.25C68.2656 324.594 65.0312 320.828 62.7188 315.953C60.4375 311.047 59.2656 305.375 59.2031 298.938V294.016C59.2031 287.453 60.3438 281.656 62.625 276.625C64.9062 271.594 68.125 267.75 72.2812 265.094C76.4688 262.406 81.25 261.062 86.625 261.062C92.0938 261.062 96.9062 262.391 101.062 265.047C105.25 267.672 108.469 271.5 110.719 276.531C112.969 281.531 114.094 287.359 114.094 294.016V298.328ZM105.141 293.922C105.141 285.828 103.516 279.625 100.266 275.312C97.0156 270.969 92.4688 268.797 86.625 268.797C80.9375 268.797 76.4531 270.969 73.1719 275.312C69.9219 279.625 68.25 285.625 68.1562 293.312V298.328C68.1562 306.172 69.7969 312.344 73.0781 316.844C76.3906 321.312 80.9375 323.547 86.7188 323.547C92.5312 323.547 97.0312 321.438 100.219 317.219C103.406 312.969 105.047 306.891 105.141 298.984V293.922Z" fill="white"/>
        <path d="M144.281 304.797H121.406V297.719H144.281V304.797Z" fill="white"/>
        <path d="M154.125 330.25V262H173.391C179.328 262 184.578 263.312 189.141 265.938C193.703 268.562 197.219 272.297 199.688 277.141C202.188 281.984 203.453 287.547 203.484 293.828V298.188C203.484 304.625 202.234 310.266 199.734 315.109C197.266 319.953 193.719 323.672 189.094 326.266C184.5 328.859 179.141 330.188 173.016 330.25H154.125ZM163.125 269.406V322.891H172.594C179.531 322.891 184.922 320.734 188.766 316.422C192.641 312.109 194.578 305.969 194.578 298V294.016C194.578 286.266 192.75 280.25 189.094 275.969C185.469 271.656 180.312 269.469 173.625 269.406H163.125Z" fill="white"/>
        <path d="M269.625 298.328C269.625 305.016 268.5 310.859 266.25 315.859C264 320.828 260.812 324.625 256.688 327.25C252.562 329.875 247.75 331.188 242.25 331.188C236.875 331.188 232.109 329.875 227.953 327.25C223.797 324.594 220.562 320.828 218.25 315.953C215.969 311.047 214.797 305.375 214.734 298.938V294.016C214.734 287.453 215.875 281.656 218.156 276.625C220.438 271.594 223.656 267.75 227.812 265.094C232 262.406 236.781 261.062 242.156 261.062C247.625 261.062 252.438 262.391 256.594 265.047C260.781 267.672 264 271.5 266.25 276.531C268.5 281.531 269.625 287.359 269.625 294.016V298.328ZM260.672 293.922C260.672 285.828 259.047 279.625 255.797 275.312C252.547 270.969 248 268.797 242.156 268.797C236.469 268.797 231.984 270.969 228.703 275.312C225.453 279.625 223.781 285.625 223.688 293.312V298.328C223.688 306.172 225.328 312.344 228.609 316.844C231.922 321.312 236.469 323.547 242.25 323.547C248.062 323.547 252.562 321.438 255.75 317.219C258.938 312.969 260.578 306.891 260.672 298.984V293.922Z" fill="white"/>
        <path d="M315.984 322.891H348.328V330.25H306.938V262H315.984V322.891Z" fill="white"/>
        <path d="M368.25 330.25H359.25V262H368.25V330.25Z" fill="white"/>
        <path d="M404.859 299.828C397.141 297.609 391.516 294.891 387.984 291.672C384.484 288.422 382.734 284.422 382.734 279.672C382.734 274.297 384.875 269.859 389.156 266.359C393.469 262.828 399.062 261.062 405.938 261.062C410.625 261.062 414.797 261.969 418.453 263.781C422.141 265.594 424.984 268.094 426.984 271.281C429.016 274.469 430.031 277.953 430.031 281.734H420.984C420.984 277.609 419.672 274.375 417.047 272.031C414.422 269.656 410.719 268.469 405.938 268.469C401.5 268.469 398.031 269.453 395.531 271.422C393.062 273.359 391.828 276.062 391.828 279.531C391.828 282.312 393 284.672 395.344 286.609C397.719 288.516 401.734 290.266 407.391 291.859C413.078 293.453 417.516 295.219 420.703 297.156C423.922 299.062 426.297 301.297 427.828 303.859C429.391 306.422 430.172 309.438 430.172 312.906C430.172 318.438 428.016 322.875 423.703 326.219C419.391 329.531 413.625 331.188 406.406 331.188C401.719 331.188 397.344 330.297 393.281 328.516C389.219 326.703 386.078 324.234 383.859 321.109C381.672 317.984 380.578 314.438 380.578 310.469H389.625C389.625 314.594 391.141 317.859 394.172 320.266C397.234 322.641 401.312 323.828 406.406 323.828C411.156 323.828 414.797 322.859 417.328 320.922C419.859 318.984 421.125 316.344 421.125 313C421.125 309.656 419.953 307.078 417.609 305.266C415.266 303.422 411.016 301.609 404.859 299.828Z" fill="white"/>
        <path d="M488.906 269.406H466.969V330.25H458.016V269.406H436.125V262H488.906V269.406Z" fill="white"/>
    </g>
</svg>
