<svg id="main_frame" width="237" height="152" viewBox="0 0 237 152" fill="none"
    xmlns="http://www.w3.org/2000/svg">
    <rect id="Rectangle 1" x="0.5" y="0.5" width="236" height="151" rx="4.5" stroke="black"/>
    <circle id="Ellipse 1" cx="213" cy="76" r="7.5" stroke="black"/>
    <path id="Rectangle 7" d="M210.507 72.3189C209.984 71.8614 210.308 71 211.003 71V71C211.185 71 211.361 71.0662 211.499 71.1862L217 76L211.499 80.8138C211.361 80.9338 211.185 81 211.003 81V81C210.308 81 209.984 80.1386 210.507 79.6811L214.714 76L210.507 72.3189Z" fill="black"/>
    <circle id="Ellipse 1_2" cx="24" cy="76" r="7.5" transform="rotate(-180 24 76)" stroke="black"/>
    <path id="Rectangle 7_2" d="M26.4926 79.6811C27.0156 80.1386 26.692 81 25.9971 81V81C25.8148 81 25.6387 80.9338 25.5015 80.8138L20 76L25.5015 71.1862C25.6387 71.0662 25.8148 71 25.9971 71V71C26.692 71 27.0156 71.8614 26.4926 72.3189L22.2857 76L26.4926 79.6811Z" fill="black"/>
</svg>
