<svg width="237" height="152" viewBox="0 0 237 152" fill="none" xmlns="http://www.w3.org/2000/svg">
    <rect x="0.5" y="0.5" width="236" height="151" rx="4.5" stroke="black"/>
    <path d="M9 8H230V144H9V8Z" fill="#6A748D"/>
    <rect x="10" y="121" width="220" height="24" fill="#675858"/>
    <path d="M89 116.011L95 119.011L93 116.511L89 116.011Z" fill="#FF5C00"/>
    <path d="M81.5 103.011L89 116.011L93 116.511L85 103.011H81.5Z" fill="#FF5C00"/>
    <path d="M87 100.511L81.5 103.011H85L85.5 102.386L87 100.511Z" fill="#FF5C00"/>
    <path fill-rule="evenodd" clip-rule="evenodd" d="M37 110.511L41.5 109.511V104.011L41 103.511L39 99.5115L44.225 101.011L50 99.5115L55 98.5115L60 98.0115L64.5 97.5115H70.5L79 98.0115L90.5 100.011L134 107.511C104.241 104.201 88.8448 102.501 85.5 102.386L87 100.511L81.5 103.011L89 116.011L95 119.011L133.291 121.848L135.5 122.011L136.5 124.511H79L80.5 119.011C79.9981 116.178 78.7507 111.511 78.7507 111.511C77.8557 109.357 76.79 107.967 75.5 106.511L73.5 105.011L70.5 104.011L67 103.511C65.438 103.337 64.562 103.357 63 103.511C61.5794 103.74 60.8084 103.945 59.5 104.511C58.3655 104.948 57.5 105.511 57 106.011C56.5 106.511 56 107.011 55.5 108.011C55.1757 108.66 55.0157 109.108 54.8367 109.61C54.7398 109.881 54.6372 110.168 54.5 110.511L54 113.408L53.5 119.511L41.5 118.511C39.3953 116.178 38.3709 114.866 37 112.511V110.511ZM160.5 112.511C160.945 113.783 161.164 114.551 161.5 116.011C161.86 118.159 161.875 118.364 161.5 120.511H169L171.5 123.511H177.333L177 123.011L175.75 121.511C177.996 118.808 178.906 117.391 180 115.011C175.464 110.622 172.236 108.66 166 105.511C160.56 103.41 157.365 102.456 151.5 101.011C150.309 100.841 149.278 100.721 148.308 100.654C158.017 102.382 163.413 105.726 173 113.511L160.5 112.511Z" fill="#FF5C00"/>
    <path d="M161.5 120.511L160.5 124.511H177L177.333 123.511H171.5L169 120.511H161.5Z" fill="#FF5C00"/>
    <path d="M91 89.5115L72.5 92.5115L55 96.0115L39 99.5115L44.225 101.011L50 99.5115L55 98.5115L60 98.0115L64.5 97.5115H70.5L79 98.0115L90.5 100.011L134 107.511C132.849 105.827 133.093 106.385 131.5 104.95L89.5 96.0115L85.5 95.5115L76 96.5115C79.3963 94.8372 81.3587 93.8572 85 92.0115C91.8082 90.9037 95.7345 90.5401 103 90.5115C108.68 90.7141 111.747 91.0398 117 92.0115C121.901 93.3961 124.639 94.3551 129.5 96.5115C132.752 98.0188 135.02 99.471 138 101.511C134.06 102.579 133.032 103.73 131.5 104.95C133.093 106.385 132.849 105.827 134 107.511C133.305 113.107 133.118 116.246 133.291 121.848L135.5 122.011C135.377 119.617 135.357 118.295 135.5 116.011C135.741 112.779 136.628 111.116 137.457 109.561C137.644 109.211 137.827 108.867 138 108.511C138.196 108.223 138.36 107.966 138.508 107.733L138.57 107.635C139.121 106.764 139.462 106.225 140.5 105.511C141.027 105.292 141.436 105.108 141.786 104.95C142.86 104.467 143.376 104.234 145 104.011C147.148 103.732 148.352 103.722 150.5 104.011C152.344 104.524 153.205 104.856 154.5 105.511C156.411 106.75 157.281 107.516 158.5 109.011C159.538 110.313 159.961 111.083 160.5 112.511L173 113.511C163.413 105.726 158.017 102.382 148.308 100.654C147.862 100.623 147.429 100.603 147 100.594C146.336 100.58 145.681 100.592 145 100.632C143.941 100.693 142.818 100.819 141.5 101.011L136.5 98.0115C119.091 89.3681 109.088 88.1081 91 89.5115Z" fill="#FF5C00"/>
    <path d="M85 103.011H81.5L89 116.011L93 116.511L85 103.011Z" fill="#422E2E"/>
    <path d="M53.5 119.5L79 124.5L80.5 119L78 110L75 104.5L65 102L54.5 105L54 113.5L53.5 119.5Z" fill="#422E2E"/>
    <path d="M134.5 121L136.421 124.362L160.5 124.5L163.5 123V115.5L157 105L144 102.5L136 107.5L134.5 121Z" fill="#422E2E"/>
    <path d="M87 100.511L81.5 103.011H85L87 100.511Z" fill="#574D4D"/>
    <path d="M93 116.511L89 116.011L95 119.011L93 116.511Z" fill="#150101"/>
    <path d="M90.5 100.011L87 100.511L85.5 102.511C98.8906 103.551 110.331 104.781 134 107.511L90.5 100.011Z" fill="#C04601"/>
    <path d="M82.5 118.511L89 116.011L95 119.011L135.5 122.011L136.5 124.511H79L81 123.011L82.5 118.511Z" fill="#C04601"/>
    <path d="M89 116.011L81.5 103.011L75.5 106.511C76.8239 108.105 77.571 109.091 78.5 111.511H80L82.5 118.511L89 116.011Z" fill="#DB5509"/>
    <path d="M85.5 102.511C104.418 104.033 115.046 105.294 134 107.511C133.136 114.786 133.185 117.296 133.272 121.675L133.275 121.84L129 121.511L95 119.011L93 116.511L85 103.011L85.5 102.511Z" fill="#D75105"/>
    <path d="M45.5 101.511L57 106.011C62.8182 102.666 66.518 102.859 73.5 105.011L75.5 106.511L81.5 103.011L87 100.511L90.5 100.011C73.216 97.0093 63.46 95.6103 44.2277 101.057L45.5 101.511Z" fill="#EE5600"/>
    <path d="M43.5 112.011L47 110.011L54 113.511L43.5 112.011Z" fill="#F55800"/>
    <path d="M54 113.511C54.4718 110.111 55.0751 108.433 57 106.011L44.2624 101.061L45 104.011L47 110.011L54 113.511Z" fill="#E05100"/>
    <path d="M48.5 119.011L43.5 112.011L54 113.511L53.5 119.511L48.5 119.011Z" fill="#CC4900"/>
    <path d="M37 112.511V110.511L38.5 111.511L43.5 112.011L48.5 119.095L41.5 118.511C39.3919 116.253 38.3957 114.943 37 112.511Z" fill="#B14101"/>
    <path d="M41.5 109.511L37 110.511L38.5 111.511L43.5 112.011L47 110.011L42.5 110.511L41.5 109.511Z" fill="#8B3402"/>
    <path d="M42 104.511L41 103.511L39.0385 99.5884L44.25 101.011L45 104.011L42 104.511Z" fill="#9C0D0D"/>
    <path d="M42 104.511L42.5 110.511L41.5 109.511V104.011H45L42 104.511Z" fill="#7A2E02"/>
    <path d="M42.5 110.511L42 104.511L45 104.011L47 110.011L42.5 110.511Z" fill="#434141"/>
    <path d="M45 104.011L47 110.011L45.5 110.178L42.5 110.511L42.4583 110.011L45.387 109.638L44.2319 104.119L45 104.011Z" fill="#120606"/>
    <path d="M85 92.0115L76 96.5115L85.5 95.5115L86.973 95.6194L87 95.5115L88 91.5115L85 92.0115Z" fill="#101010"/>
    <path d="M85 95.0115L85.5 95.5115L86.9732 95.6187L87 95.5115L88 91.5115L86.9029 91.6815L85 95.0115Z" fill="#363636"/>
    <path d="M93.619 90.8442L94.5 97.0115L89.5 96.0115L86.9601 95.6711L88 91.5115L93.619 90.8442Z" fill="#262626"/>
    <path d="M130.5 97.0115L131.5 105.011L94.5 97.0115L93.5 90.9269C102.488 90.1296 107.625 90.3105 117 92.0115C122.314 93.4827 125.277 94.4989 130.5 97.0115Z" fill="#333030"/>
    <path d="M131.5 105.011C132.606 105.799 133.149 106.337 134 107.511L90.5 100.011C71.4491 96.4556 61.2371 96.332 44.25 101.011L46 99.0115C55.0484 96.8554 61.2959 96.166 76 96.5115L85.5 95.5115L89.5 96.0115L131.5 105.011Z" fill="#CE4B02"/>
    <path d="M43.5 98.5115L46 99.0115L44.2053 101.042L39 99.5115L43.5 98.5115Z" fill="#E05100"/>
    <path d="M141.5 101.012C123.334 90.2984 111.852 87.7484 91 89.5115C71.4882 92.4498 61.2076 94.492 43.5 98.5115L46 99.0115C55.2623 96.5888 61.8609 96.0592 76 96.5115L85 92.0115C109.952 88.2943 121.078 91.2084 138 101.511L141.5 101.012Z" fill="#E35302"/>
    <path d="M160.5 124.511L161.5 120.511H169L171.5 123.511L177.267 123.578L177 124.511H160.5Z" fill="#AC4003"/>
    <path d="M173 113.511L160.5 112.511C161.619 115.9 161.872 117.664 161.5 120.511H169L173 113.511Z" fill="#C84800"/>
    <path d="M170.374 122.16L171.5 123.511H177.282L175.149 122.311L170.374 122.16Z" fill="#DF5000"/>
    <path d="M177.283 114.843C176.308 116.942 175.703 118.076 174.5 120.012C175.271 120.902 175.832 121.596 177.283 123.512L175.11 122.312L173.5 120.012L175.5 116.512L172.128 115.066L173 113.511L177.283 114.843Z" fill="#A43E05"/>
    <path d="M173.5 120.011L175.5 116.511L172.143 115.011L169 120.511L170.401 122.184L175.138 122.352L173.5 120.011Z" fill="#404040"/>
    <path d="M175.769 121.511L174.5 120.011H177L175.769 121.511Z" fill="#802F03"/>
    <path d="M180 115.012C179.139 116.973 178.437 118.066 177 120.012H174.5C175.7 117.967 176.314 116.836 177.329 114.839C178.862 115.125 179.457 115.167 180 115.012Z" fill="#CA4900"/>
    <path d="M172.5 111.511L170.5 111.011L162.5 105.011C165.983 106.312 168.5 107.227 172.5 110.011V111.511Z" fill="#353535"/>
    <path d="M170.142 121.87L169 120.5L172.132 115L173.081 115.419L170.142 121.87Z" fill="#1C1A1A"/>
    <path d="M160.5 112.5L173 113.5C160.062 103.162 153.064 99.5545 141.5 101L138 101.5C134.787 102.366 133.441 103.189 131.5 105C132.771 106.002 133.278 106.545 134 107.5C133.4 112.688 133.284 115.862 133.331 121.833L135.5 122C135.238 113.774 135.996 109.89 140.5 105.5C151.387 100.894 157.566 106.295 160.5 112.5Z" fill="#DF5000"/>
    <circle cx="67" cy="117" r="12" fill="black"/>
    <path d="M160 116.5C160 122.851 154.851 128 148.5 128C142.149 128 137 122.851 137 116.5C137 110.149 142.149 105 148.5 105C154.851 105 160 110.149 160 116.5Z" fill="black"/>
</svg>
