<svg width="734" height="443" viewBox="0 0 734 443" fill="none" xmlns="http://www.w3.org/2000/svg">
  <mask id="path-1-inside-1" fill="white">
  <path d="M549.195 11.7344H516.289V103H502.859V11.7344H470.023V0.625H549.195V11.7344Z"/>
  <path d="M643.062 103H629.492V55.6797H577.883V103H564.383V0.625H577.883V44.6406H629.492V0.625H643.062V103Z"/>
  <path d="M724.906 55.6797H680.539V91.9609H732.078V103H667.039V0.625H731.375V11.7344H680.539V44.6406H724.906V55.6797Z"/>
  <path d="M164.797 169.625V239.234C164.75 248.891 161.703 256.789 155.656 262.93C149.656 269.07 141.5 272.516 131.188 273.266L127.602 273.406C116.398 273.406 107.469 270.383 100.812 264.336C94.1562 258.289 90.7812 249.969 90.6875 239.375V169.625H104.047V238.953C104.047 246.359 106.086 252.125 110.164 256.25C114.242 260.328 120.055 262.367 127.602 262.367C135.242 262.367 141.078 260.328 145.109 256.25C149.188 252.172 151.227 246.43 151.227 239.023V169.625H164.797Z"/>
  <path d="M199.672 260.961H248.188V272H186.102V169.625H199.672V260.961Z"/>
  <path d="M314.914 180.734H282.008V272H268.578V180.734H235.742V169.625H314.914V180.734Z"/>
  <path d="M344.586 272H331.086V169.625H344.586V272Z"/>
  <path d="M386.773 169.625L420.242 253.156L453.711 169.625H471.219V272H457.719V232.133L458.984 189.102L425.375 272H415.039L381.5 189.312L382.836 232.133V272H369.336V169.625H386.773Z"/>
  <path d="M552.852 245.281H509.961L500.328 272H486.406L525.5 169.625H537.312L576.477 272H562.625L552.852 245.281ZM514.039 234.172H548.844L531.406 186.289L514.039 234.172Z"/>
  <path d="M651.852 180.734H618.945V272H605.516V180.734H572.68V169.625H651.852V180.734Z"/>
  <path d="M724.906 224.68H680.539V260.961H732.078V272H667.039V169.625H731.375V180.734H680.539V213.641H724.906V224.68Z"/>
  <path d="M79.5078 349.734H46.6016V441H33.1719V349.734H0.335938V338.625H79.5078V349.734Z"/>
  <path d="M171.477 393.117C171.477 403.148 169.789 411.914 166.414 419.414C163.039 426.867 158.258 432.562 152.07 436.5C145.883 440.438 138.664 442.406 130.414 442.406C122.352 442.406 115.203 440.438 108.969 436.5C102.734 432.516 97.8828 426.867 94.4141 419.555C90.9922 412.195 89.2344 403.688 89.1406 394.031V386.648C89.1406 376.805 90.8516 368.109 94.2734 360.562C97.6953 353.016 102.523 347.25 108.758 343.266C115.039 339.234 122.211 337.219 130.273 337.219C138.477 337.219 145.695 339.211 151.93 343.195C158.211 347.133 163.039 352.875 166.414 360.422C169.789 367.922 171.477 376.664 171.477 386.648V393.117ZM158.047 386.508C158.047 374.367 155.609 365.062 150.734 358.594C145.859 352.078 139.039 348.82 130.273 348.82C121.742 348.82 115.016 352.078 110.094 358.594C105.219 365.062 102.711 374.062 102.57 385.594V393.117C102.57 404.883 105.031 414.141 109.953 420.891C114.922 427.594 121.742 430.945 130.414 430.945C139.133 430.945 145.883 427.781 150.664 421.453C155.445 415.078 157.906 405.961 158.047 394.102V386.508Z"/>
  <path d="M216.758 402.82H182.445V392.203H216.758V402.82Z"/>
  <path d="M231.523 441V338.625H260.422C269.328 338.625 277.203 340.594 284.047 344.531C290.891 348.469 296.164 354.07 299.867 361.336C303.617 368.602 305.516 376.945 305.562 386.367V392.906C305.562 402.562 303.688 411.023 299.938 418.289C296.234 425.555 290.914 431.133 283.977 435.023C277.086 438.914 269.047 440.906 259.859 441H231.523ZM245.023 349.734V429.961H259.227C269.633 429.961 277.719 426.727 283.484 420.258C289.297 413.789 292.203 404.578 292.203 392.625V386.648C292.203 375.023 289.461 366 283.977 359.578C278.539 353.109 270.805 349.828 260.773 349.734H245.023Z"/>
  <path d="M404.773 393.117C404.773 403.148 403.086 411.914 399.711 419.414C396.336 426.867 391.555 432.562 385.367 436.5C379.18 440.438 371.961 442.406 363.711 442.406C355.648 442.406 348.5 440.438 342.266 436.5C336.031 432.516 331.18 426.867 327.711 419.555C324.289 412.195 322.531 403.688 322.438 394.031V386.648C322.438 376.805 324.148 368.109 327.57 360.562C330.992 353.016 335.82 347.25 342.055 343.266C348.336 339.234 355.508 337.219 363.57 337.219C371.773 337.219 378.992 339.211 385.227 343.195C391.508 347.133 396.336 352.875 399.711 360.422C403.086 367.922 404.773 376.664 404.773 386.648V393.117ZM391.344 386.508C391.344 374.367 388.906 365.062 384.031 358.594C379.156 352.078 372.336 348.82 363.57 348.82C355.039 348.82 348.312 352.078 343.391 358.594C338.516 365.062 336.008 374.062 335.867 385.594V393.117C335.867 404.883 338.328 414.141 343.25 420.891C348.219 427.594 355.039 430.945 363.711 430.945C372.43 430.945 379.18 427.781 383.961 421.453C388.742 415.078 391.203 405.961 391.344 394.102V386.508Z"/>
  <path d="M474.312 429.961H522.828V441H460.742V338.625H474.312V429.961Z"/>
  <path d="M552.711 441H539.211V338.625H552.711V441Z"/>
  <path d="M607.625 395.367C596.047 392.039 587.609 387.961 582.312 383.133C577.062 378.258 574.438 372.258 574.438 365.133C574.438 357.07 577.648 350.414 584.07 345.164C590.539 339.867 598.93 337.219 609.242 337.219C616.273 337.219 622.531 338.578 628.016 341.297C633.547 344.016 637.812 347.766 640.812 352.547C643.859 357.328 645.383 362.555 645.383 368.227H631.812C631.812 362.039 629.844 357.188 625.906 353.672C621.969 350.109 616.414 348.328 609.242 348.328C602.586 348.328 597.383 349.805 593.633 352.758C589.93 355.664 588.078 359.719 588.078 364.922C588.078 369.094 589.836 372.633 593.352 375.539C596.914 378.398 602.938 381.023 611.422 383.414C619.953 385.805 626.609 388.453 631.391 391.359C636.219 394.219 639.781 397.57 642.078 401.414C644.422 405.258 645.594 409.781 645.594 414.984C645.594 423.281 642.359 429.938 635.891 434.953C629.422 439.922 620.773 442.406 609.945 442.406C602.914 442.406 596.352 441.07 590.258 438.398C584.164 435.68 579.453 431.977 576.125 427.289C572.844 422.602 571.203 417.281 571.203 411.328H584.773C584.773 417.516 587.047 422.414 591.594 426.023C596.188 429.586 602.305 431.367 609.945 431.367C617.07 431.367 622.531 429.914 626.328 427.008C630.125 424.102 632.023 420.141 632.023 415.125C632.023 410.109 630.266 406.242 626.75 403.523C623.234 400.758 616.859 398.039 607.625 395.367Z"/>
  <path d="M733.695 349.734H700.789V441H687.359V349.734H654.523V338.625H733.695V349.734Z"/>
  </mask>
  <path d="M549.195 11.7344H516.289V103H502.859V11.7344H470.023V0.625H549.195V11.7344Z" stroke="white" stroke-width="6" mask="url(#path-1-inside-1)"/>
  <path d="M643.062 103H629.492V55.6797H577.883V103H564.383V0.625H577.883V44.6406H629.492V0.625H643.062V103Z" stroke="white" stroke-width="6" mask="url(#path-1-inside-1)"/>
  <path d="M724.906 55.6797H680.539V91.9609H732.078V103H667.039V0.625H731.375V11.7344H680.539V44.6406H724.906V55.6797Z" stroke="white" stroke-width="6" mask="url(#path-1-inside-1)"/>
  <path d="M164.797 169.625V239.234C164.75 248.891 161.703 256.789 155.656 262.93C149.656 269.07 141.5 272.516 131.188 273.266L127.602 273.406C116.398 273.406 107.469 270.383 100.812 264.336C94.1562 258.289 90.7812 249.969 90.6875 239.375V169.625H104.047V238.953C104.047 246.359 106.086 252.125 110.164 256.25C114.242 260.328 120.055 262.367 127.602 262.367C135.242 262.367 141.078 260.328 145.109 256.25C149.188 252.172 151.227 246.43 151.227 239.023V169.625H164.797Z" stroke="white" stroke-width="6" mask="url(#path-1-inside-1)"/>
  <path d="M199.672 260.961H248.188V272H186.102V169.625H199.672V260.961Z" stroke="white" stroke-width="6" mask="url(#path-1-inside-1)"/>
  <path d="M314.914 180.734H282.008V272H268.578V180.734H235.742V169.625H314.914V180.734Z" stroke="white" stroke-width="6" mask="url(#path-1-inside-1)"/>
  <path d="M344.586 272H331.086V169.625H344.586V272Z" stroke="white" stroke-width="6" mask="url(#path-1-inside-1)"/>
  <path d="M386.773 169.625L420.242 253.156L453.711 169.625H471.219V272H457.719V232.133L458.984 189.102L425.375 272H415.039L381.5 189.312L382.836 232.133V272H369.336V169.625H386.773Z" stroke="white" stroke-width="6" mask="url(#path-1-inside-1)"/>
  <path d="M552.852 245.281H509.961L500.328 272H486.406L525.5 169.625H537.312L576.477 272H562.625L552.852 245.281ZM514.039 234.172H548.844L531.406 186.289L514.039 234.172Z" stroke="white" stroke-width="6" mask="url(#path-1-inside-1)"/>
  <path d="M651.852 180.734H618.945V272H605.516V180.734H572.68V169.625H651.852V180.734Z" stroke="white" stroke-width="6" mask="url(#path-1-inside-1)"/>
  <path d="M724.906 224.68H680.539V260.961H732.078V272H667.039V169.625H731.375V180.734H680.539V213.641H724.906V224.68Z" stroke="white" stroke-width="6" mask="url(#path-1-inside-1)"/>
  <path d="M79.5078 349.734H46.6016V441H33.1719V349.734H0.335938V338.625H79.5078V349.734Z" stroke="white" stroke-width="6" mask="url(#path-1-inside-1)"/>
  <path d="M171.477 393.117C171.477 403.148 169.789 411.914 166.414 419.414C163.039 426.867 158.258 432.562 152.07 436.5C145.883 440.438 138.664 442.406 130.414 442.406C122.352 442.406 115.203 440.438 108.969 436.5C102.734 432.516 97.8828 426.867 94.4141 419.555C90.9922 412.195 89.2344 403.688 89.1406 394.031V386.648C89.1406 376.805 90.8516 368.109 94.2734 360.562C97.6953 353.016 102.523 347.25 108.758 343.266C115.039 339.234 122.211 337.219 130.273 337.219C138.477 337.219 145.695 339.211 151.93 343.195C158.211 347.133 163.039 352.875 166.414 360.422C169.789 367.922 171.477 376.664 171.477 386.648V393.117ZM158.047 386.508C158.047 374.367 155.609 365.062 150.734 358.594C145.859 352.078 139.039 348.82 130.273 348.82C121.742 348.82 115.016 352.078 110.094 358.594C105.219 365.062 102.711 374.062 102.57 385.594V393.117C102.57 404.883 105.031 414.141 109.953 420.891C114.922 427.594 121.742 430.945 130.414 430.945C139.133 430.945 145.883 427.781 150.664 421.453C155.445 415.078 157.906 405.961 158.047 394.102V386.508Z" stroke="white" stroke-width="6" mask="url(#path-1-inside-1)"/>
  <path d="M216.758 402.82H182.445V392.203H216.758V402.82Z" stroke="white" stroke-width="6" mask="url(#path-1-inside-1)"/>
  <path d="M231.523 441V338.625H260.422C269.328 338.625 277.203 340.594 284.047 344.531C290.891 348.469 296.164 354.07 299.867 361.336C303.617 368.602 305.516 376.945 305.562 386.367V392.906C305.562 402.562 303.688 411.023 299.938 418.289C296.234 425.555 290.914 431.133 283.977 435.023C277.086 438.914 269.047 440.906 259.859 441H231.523ZM245.023 349.734V429.961H259.227C269.633 429.961 277.719 426.727 283.484 420.258C289.297 413.789 292.203 404.578 292.203 392.625V386.648C292.203 375.023 289.461 366 283.977 359.578C278.539 353.109 270.805 349.828 260.773 349.734H245.023Z" stroke="white" stroke-width="6" mask="url(#path-1-inside-1)"/>
  <path d="M404.773 393.117C404.773 403.148 403.086 411.914 399.711 419.414C396.336 426.867 391.555 432.562 385.367 436.5C379.18 440.438 371.961 442.406 363.711 442.406C355.648 442.406 348.5 440.438 342.266 436.5C336.031 432.516 331.18 426.867 327.711 419.555C324.289 412.195 322.531 403.688 322.438 394.031V386.648C322.438 376.805 324.148 368.109 327.57 360.562C330.992 353.016 335.82 347.25 342.055 343.266C348.336 339.234 355.508 337.219 363.57 337.219C371.773 337.219 378.992 339.211 385.227 343.195C391.508 347.133 396.336 352.875 399.711 360.422C403.086 367.922 404.773 376.664 404.773 386.648V393.117ZM391.344 386.508C391.344 374.367 388.906 365.062 384.031 358.594C379.156 352.078 372.336 348.82 363.57 348.82C355.039 348.82 348.312 352.078 343.391 358.594C338.516 365.062 336.008 374.062 335.867 385.594V393.117C335.867 404.883 338.328 414.141 343.25 420.891C348.219 427.594 355.039 430.945 363.711 430.945C372.43 430.945 379.18 427.781 383.961 421.453C388.742 415.078 391.203 405.961 391.344 394.102V386.508Z" stroke="white" stroke-width="6" mask="url(#path-1-inside-1)"/>
  <path d="M474.312 429.961H522.828V441H460.742V338.625H474.312V429.961Z" stroke="white" stroke-width="6" mask="url(#path-1-inside-1)"/>
  <path d="M552.711 441H539.211V338.625H552.711V441Z" stroke="white" stroke-width="6" mask="url(#path-1-inside-1)"/>
  <path d="M607.625 395.367C596.047 392.039 587.609 387.961 582.312 383.133C577.062 378.258 574.438 372.258 574.438 365.133C574.438 357.07 577.648 350.414 584.07 345.164C590.539 339.867 598.93 337.219 609.242 337.219C616.273 337.219 622.531 338.578 628.016 341.297C633.547 344.016 637.812 347.766 640.812 352.547C643.859 357.328 645.383 362.555 645.383 368.227H631.812C631.812 362.039 629.844 357.188 625.906 353.672C621.969 350.109 616.414 348.328 609.242 348.328C602.586 348.328 597.383 349.805 593.633 352.758C589.93 355.664 588.078 359.719 588.078 364.922C588.078 369.094 589.836 372.633 593.352 375.539C596.914 378.398 602.938 381.023 611.422 383.414C619.953 385.805 626.609 388.453 631.391 391.359C636.219 394.219 639.781 397.57 642.078 401.414C644.422 405.258 645.594 409.781 645.594 414.984C645.594 423.281 642.359 429.938 635.891 434.953C629.422 439.922 620.773 442.406 609.945 442.406C602.914 442.406 596.352 441.07 590.258 438.398C584.164 435.68 579.453 431.977 576.125 427.289C572.844 422.602 571.203 417.281 571.203 411.328H584.773C584.773 417.516 587.047 422.414 591.594 426.023C596.188 429.586 602.305 431.367 609.945 431.367C617.07 431.367 622.531 429.914 626.328 427.008C630.125 424.102 632.023 420.141 632.023 415.125C632.023 410.109 630.266 406.242 626.75 403.523C623.234 400.758 616.859 398.039 607.625 395.367Z" stroke="white" stroke-width="6" mask="url(#path-1-inside-1)"/>
  <path d="M733.695 349.734H700.789V441H687.359V349.734H654.523V338.625H733.695V349.734Z" stroke="white" stroke-width="6" mask="url(#path-1-inside-1)"/>
</svg>
