<svg id="app_logo" viewBox="0 0 342 297">
  <g id="horizontal_lines" stroke="url(#stroke_lgradient_rectangle)">
    <path id="Rectangle 1" d="M40 86.5H341.5V128.5H40C34.7533 128.5 30.5 124.247 30.5 119V96C30.5 90.7533 34.7533 86.5 40 86.5Z"/>
    <path id="Rectangle 2" d="M40 170.5H341.5V212.5H40C34.7533 212.5 30.5 208.247 30.5 203V180C30.5 174.753 34.7533 170.5 40 170.5Z"/>
    <path id="Rectangle 3" d="M40 254.5H341.5V296.5H40C34.7533 296.5 30.5 292.247 30.5 287V264C30.5 258.753 34.7533 254.5 40 254.5Z"/>
  </g>
  <g id="check_down" filter="url(#filter_dshadow_arrowdown)">
    <path d="M26.4483 218.141C17.1896 206.965 13.2216 203.082 1.99614 189.196C-1.20866 184.45 3.99923 180.1 8.00521 182.868L31.2403 199.479C75.9154 154.238 98.3772 133.174 136.173 101.689C136.499 101.417 137 101.643 137 102.067V105.107C137 108.023 135.721 110.795 133.518 112.705C95.9306 145.292 73.3084 170.296 35.9046 218.029C33.5209 221.071 28.9138 221.117 26.4483 218.141Z" fill="#E1E1E1"/>
  </g>
  <g id="check_up" filter="url(#filter_dshadow_arrowup)">
    <path d="M31.2348 136.313C19.9249 122.699 15.4499 118.44 2.14996 102.103C-1.5497 96.6624 4.46234 91.6752 9.0869 94.8489L35.9098 113.891C81.552 68.2491 108.078 43.3857 157.167 1.70668C157.492 1.43097 158 1.65399 158 2.07999V6.49101C158 9.34309 156.77 12.0669 154.648 13.972C109.602 54.4069 83.4901 83.9984 40.573 136.308C38.1646 139.244 33.6612 139.233 31.2348 136.313Z" fill="#E0E0E0"/>
  </g>
  <defs>
    <filter id="filter_dshadow_arrowdown" x="0.600122" y="100.247" width="138.8" height="121.989" filterUnits="userSpaceOnUse" color-interpolation-filters="sRGB">
      <feFlood flood-opacity="0" result="BackgroundImageFix"/>
      <feColorMatrix in="SourceAlpha" type="matrix" values="0 0 0 0 0 0 0 0 0 0 0 0 0 0 0 0 0 0 127 0" result="hardAlpha"/>
      <feOffset dx="-0.9" dy="-0.9"/>
      <feComposite in2="hardAlpha" operator="out"/>
      <feColorMatrix type="matrix" values="0 0 0 0 0.0160417 0 0 0 0 0.0419375 0 0 0 0 0.275 0 0 0 1 0"/>
      <feBlend mode="normal" in2="BackgroundImageFix" result="effect1_dropShadow"/>
      <feColorMatrix in="SourceAlpha" type="matrix" values="0 0 0 0 0 0 0 0 0 0 0 0 0 0 0 0 0 0 127 0" result="hardAlpha"/>
      <feOffset dx="0.9" dy="0.9"/>
      <feComposite in2="hardAlpha" operator="out"/>
      <feColorMatrix type="matrix" values="0 0 0 0 0.0160417 0 0 0 0 0.0419375 0 0 0 0 0.275 0 0 0 1 0"/>
      <feBlend mode="normal" in2="effect1_dropShadow" result="effect2_dropShadow"/>
      <feColorMatrix in="SourceAlpha" type="matrix" values="0 0 0 0 0 0 0 0 0 0 0 0 0 0 0 0 0 0 127 0" result="hardAlpha"/>
      <feOffset dx="-0.9" dy="0.9"/>
      <feComposite in2="hardAlpha" operator="out"/>
      <feColorMatrix type="matrix" values="0 0 0 0 0.0160417 0 0 0 0 0.0419375 0 0 0 0 0.275 0 0 0 1 0"/>
      <feBlend mode="normal" in2="effect2_dropShadow" result="effect3_dropShadow"/>
      <feColorMatrix in="SourceAlpha" type="matrix" values="0 0 0 0 0 0 0 0 0 0 0 0 0 0 0 0 0 0 127 0" result="hardAlpha"/>
      <feOffset dx="0.9" dy="-0.9"/>
      <feComposite in2="hardAlpha" operator="out"/>
      <feColorMatrix type="matrix" values="0 0 0 0 0.0160417 0 0 0 0 0.0419375 0 0 0 0 0.275 0 0 0 1 0"/>
      <feBlend mode="normal" in2="effect3_dropShadow" result="effect4_dropShadow"/>
      <feBlend mode="normal" in="SourceGraphic" in2="effect4_dropShadow" result="shape"/>
    </filter>
    <filter id="filter_dshadow_arrowup" x="0.600122" y="0.241357" width="159.8" height="140.028" filterUnits="userSpaceOnUse" color-interpolation-filters="sRGB">
      <feFlood flood-opacity="0" result="BackgroundImageFix"/>
      <feColorMatrix in="SourceAlpha" type="matrix" values="0 0 0 0 0 0 0 0 0 0 0 0 0 0 0 0 0 0 127 0" result="hardAlpha"/>
      <feOffset dx="-0.9" dy="-0.9"/>
      <feComposite in2="hardAlpha" operator="out"/>
      <feColorMatrix type="matrix" values="0 0 0 0 0.0160417 0 0 0 0 0.0419375 0 0 0 0 0.275 0 0 0 1 0"/>
      <feBlend mode="normal" in2="BackgroundImageFix" result="effect1_dropShadow"/>
      <feColorMatrix in="SourceAlpha" type="matrix" values="0 0 0 0 0 0 0 0 0 0 0 0 0 0 0 0 0 0 127 0" result="hardAlpha"/>
      <feOffset dx="0.9" dy="0.9"/>
      <feComposite in2="hardAlpha" operator="out"/>
      <feColorMatrix type="matrix" values="0 0 0 0 0.0160417 0 0 0 0 0.0419375 0 0 0 0 0.275 0 0 0 1 0"/>
      <feBlend mode="normal" in2="effect1_dropShadow" result="effect2_dropShadow"/>
      <feColorMatrix in="SourceAlpha" type="matrix" values="0 0 0 0 0 0 0 0 0 0 0 0 0 0 0 0 0 0 127 0" result="hardAlpha"/>
      <feOffset dx="-0.9" dy="0.9"/>
      <feComposite in2="hardAlpha" operator="out"/>
      <feColorMatrix type="matrix" values="0 0 0 0 0.0160417 0 0 0 0 0.0419375 0 0 0 0 0.275 0 0 0 1 0"/>
      <feBlend mode="normal" in2="effect2_dropShadow" result="effect3_dropShadow"/>
      <feColorMatrix in="SourceAlpha" type="matrix" values="0 0 0 0 0 0 0 0 0 0 0 0 0 0 0 0 0 0 127 0" result="hardAlpha"/>
      <feOffset dx="0.9" dy="-0.9"/>
      <feComposite in2="hardAlpha" operator="out"/>
      <feColorMatrix type="matrix" values="0 0 0 0 0.0160417 0 0 0 0 0.0419375 0 0 0 0 0.275 0 0 0 1 0"/>
      <feBlend mode="normal" in2="effect3_dropShadow" result="effect4_dropShadow"/>
      <feBlend mode="normal" in="SourceGraphic" in2="effect4_dropShadow" result="shape"/>
    </filter>
    <linearGradient id="stroke_lgradient_rectangle" x1="30" y1="108" x2="342" y2="108" gradientUnits="userSpaceOnUse">
      <stop stop-color="white"/>
      <stop offset="0.578125" stop-color="white" stop-opacity="0.38"/>
      <stop offset="1" stop-color="white" stop-opacity="0"/>
    </linearGradient>
    <linearGradient id="paint3_linear" x1="32.7516" y1="193.468" x2="153.084" y2="80.4705" gradientUnits="userSpaceOnUse">
      <stop stop-color="white"/>
      <stop offset="0.702361" stop-color="white" stop-opacity="0.43"/>
      <stop offset="1" stop-color="white" stop-opacity="0"/>
    </linearGradient>
    <linearGradient id="paint4_linear" x1="37.5" y1="107" x2="175.5" y2="-23.5" gradientUnits="userSpaceOnUse">
      <stop stop-color="white"/>
      <stop offset="0.308122" stop-color="white" stop-opacity="0.43"/>
      <stop offset="1" stop-color="white" stop-opacity="0"/>
    </linearGradient>
    <linearGradient id="fill_lgradient_rectangle" x1="0" y1="22" x2="312" y2="22" gradientUnits="userSpaceOnUse">
      <stop stop-color="white"/>
      <stop offset="1" stop-color="white" stop-opacity="0"/>
    </linearGradient>
    <linearGradient id="fill_lgradient_checkup" x1="36.5" y1="105.5" x2="201.5" y2="-45" gradientUnits="userSpaceOnUse">
      <stop offset="0.135599" stop-color="white"/>
      <stop offset="1" stop-color="#040B46"/>
    </linearGradient>
    <linearGradient id="fill_lgradient_checkdown" x1="31.7516" y1="92.1596" x2="195.548" y2="-57.8557" gradientUnits="userSpaceOnUse">
      <stop offset="0.174326" stop-color="white"/>
      <stop offset="1" stop-color="#040B46"/>
    </linearGradient>
  </defs>
</svg>